<?xml version="1.0" encoding="UTF-8"?>
<svg version="1.1" xmlns="http://www.w3.org/2000/svg" width="512" height="512">
<path d="M0 0 C0.79158203 -0.00453111 1.58316407 -0.00906223 2.39873344 -0.01373065 C5.02400614 -0.0262874 7.64906908 -0.02476002 10.27436829 -0.02310181 C12.16741703 -0.02909219 14.06046334 -0.03589891 15.95350647 -0.04345703 C21.07512704 -0.06106421 26.19668071 -0.06580995 31.31832862 -0.0670886 C34.51970914 -0.06851282 37.72107279 -0.07278737 40.92244911 -0.07808304 C52.09461671 -0.09656004 63.26673669 -0.10475585 74.43891907 -0.10317993 C84.84949215 -0.10197652 95.25985859 -0.12312395 105.67037934 -0.15466726 C114.61666262 -0.18080737 123.56287825 -0.1915483 132.50919944 -0.19026911 C137.84919091 -0.18975917 143.18899827 -0.19546155 148.52895164 -0.21662521 C153.54660825 -0.23597142 158.56390425 -0.23615686 163.58157349 -0.22159195 C165.42221922 -0.21949883 167.26288735 -0.22423461 169.10349464 -0.23631287 C171.61711018 -0.25173933 174.12947793 -0.24247544 176.64306641 -0.22705078 C177.3704033 -0.23733791 178.0977402 -0.24762503 178.8471176 -0.25822389 C183.89284213 -0.18984448 186.73459726 1.11664432 190.63105774 4.26742554 C193.6308566 8.07039595 194.01231855 10.96416181 194.03511047 15.74740601 C194.05413673 17.68630203 194.05413673 17.68630203 194.07354736 19.66436768 C194.07149376 21.07111776 194.06850394 22.47786673 194.06465149 23.88461304 C194.06921982 25.34369142 194.07452733 26.80276766 194.08053589 28.26184082 C194.08946596 31.32336138 194.08705144 34.3846212 194.07710266 37.44613647 C194.06570794 41.32689566 194.08567638 45.20673193 194.1150198 49.08736992 C194.13359006 52.10589122 194.13304699 55.1242008 194.12738228 58.14276505 C194.12723108 59.5705811 194.13310503 60.99841343 194.14567375 62.42617416 C194.30106733 83.0001155 187.91807163 101.14409864 173.63105774 116.26742554 C168.92139416 120.89286264 164.32615424 124.91987193 158.63105774 128.26742554 C159.41641907 128.27153442 160.2017804 128.27564331 161.01094055 128.27987671 C164.63503205 128.31315701 168.25751822 128.38384 171.88105774 128.45492554 C173.11597961 128.46072632 174.35090149 128.4665271 175.62324524 128.47250366 C187.41782765 128.75184903 197.03301099 131.74033074 205.65840149 140.02133179 C214.76729289 150.3928418 216.49249491 160.80859897 215.82637024 174.11166382 C215.00945046 183.12841587 210.38982872 190.93120928 203.78340149 196.95101929 C195.6811703 203.4102533 187.35002244 206.41226099 177.01777649 206.36508179 C175.77060852 206.36185913 174.52344055 206.35863647 173.23847961 206.35531616 C171.9449054 206.34693726 170.65133118 206.33855835 169.31855774 206.32992554 C167.3491925 206.32315796 167.3491925 206.32315796 165.34004211 206.31625366 C162.10366764 206.30448503 158.86738596 206.28804313 155.63105774 206.26742554 C155.64676819 207.01725708 155.66247864 207.76708862 155.67866516 208.53964233 C155.74189335 212.01132339 155.78032339 215.48288267 155.81855774 218.95492554 C155.85626282 220.72319702 155.85626282 220.72319702 155.89472961 222.52719116 C155.96304864 230.83933973 154.85336052 238.26095549 152.63105774 246.26742554 C153.26919403 246.25854309 153.90733032 246.24966064 154.56480408 246.24050903 C161.21586638 246.15190808 167.8667606 246.0916381 174.51826477 246.04769897 C176.99945385 246.02760313 179.48059569 246.0003217 181.96162415 245.96566772 C185.53124156 245.9170626 189.1002319 245.89443581 192.67012024 245.87680054 C193.77658905 245.8561554 194.88305786 245.83551025 196.02305603 245.8142395 C202.22437116 245.81243908 205.92854206 246.0841763 210.63105774 250.26742554 C214.31622895 254.46089622 214.75551131 257.91618811 214.74458313 263.39120483 C214.7445076 264.65228561 214.74443207 265.91336639 214.74435425 267.21266174 C214.73924763 268.58898966 214.73403163 269.96531717 214.72871399 271.34164429 C214.7268486 272.74983164 214.72542527 274.15801965 214.72442627 275.56620789 C214.72061062 279.27009884 214.71078846 282.97395049 214.69972229 286.67782593 C214.68948771 290.4583381 214.68492426 294.23885663 214.67988586 298.01937866 C214.66916533 305.43541219 214.65210034 312.85141335 214.63105774 320.26742554 C215.62685852 320.56038765 215.62685852 320.56038765 216.64277649 320.85926819 C233.98154176 326.00206699 249.61385613 332.67723057 263.63105774 344.26742554 C264.7254718 345.14140991 264.7254718 345.14140991 265.84199524 346.03305054 C283.78584402 361.01773829 295.6086005 384.20549567 298.63105774 407.26742554 C299.18093188 414.63646244 299.07869281 422.03893795 299.06465149 429.42367554 C299.06922135 431.54163784 299.0745293 433.65959866 299.08053589 435.77755737 C299.08941558 440.18830444 299.08709838 444.59886988 299.07710266 449.00961304 C299.06555051 454.65646582 299.08594591 460.30269903 299.1150198 465.94947052 C299.13336171 470.3109635 299.1330945 474.67230688 299.12738228 479.03382874 C299.12722919 481.1166115 299.13326343 483.19940447 299.14567375 485.28215027 C299.16056399 488.18714623 299.14992527 491.09098138 299.13276672 493.99594116 C299.14243469 494.85004578 299.15210266 495.70415039 299.1620636 496.58413696 C299.09595686 501.9334689 298.28294745 505.09221807 294.63105774 509.26742554 C290.3732507 512.55503724 286.50682984 512.6926997 281.31759739 512.64774227 C280.47956915 512.65240219 279.6415409 512.65706211 278.77811787 512.66186324 C275.95725731 512.67385719 273.13687449 512.66440086 270.31600952 512.65510559 C268.27831603 512.65927658 266.24062486 512.66475279 264.20293802 512.6714254 C258.59339497 512.68592953 252.98399822 512.68161979 247.37444699 512.67425859 C241.32867801 512.6695415 235.28294135 512.6820238 229.23718262 512.692276 C218.07450054 512.70850184 206.91186399 512.71090338 195.74917635 512.70597101 C185.43690867 512.70141657 175.1246584 512.70200959 164.81239128 512.70781136 C163.42994819 512.70856822 162.04750509 512.7093242 160.66506199 512.7100793 C158.5819308 512.71122447 156.49879962 512.71237435 154.41566844 512.71353854 C135.04460038 512.72424606 115.67353814 512.7289662 96.3024683 512.72106838 C95.57201672 512.72077121 94.84156514 512.72047404 94.08897867 512.72016786 C88.15692219 512.71771884 82.22486579 512.71510729 76.29280938 512.71248372 C53.15138089 512.70238039 30.01002494 512.71073729 6.86860657 512.73397827 C-19.1227667 512.76003914 -45.11409629 512.77290197 -71.10548311 512.76579052 C-73.87580875 512.76507444 -76.64613439 512.76440006 -79.41646004 512.76375008 C-80.09859933 512.76358027 -80.78073863 512.76341046 -81.48354882 512.7632355 C-91.78924986 512.76093068 -102.09491039 512.76891823 -112.40060234 512.78204155 C-124.11821884 512.79693609 -135.83575659 512.79744306 -147.55337685 512.77997064 C-153.53483059 512.77143062 -159.51610266 512.76938417 -165.49754715 512.78462219 C-170.96948167 512.79838995 -176.44107753 512.79380852 -181.91299207 512.77438296 C-183.89611154 512.77059823 -185.87925763 512.77361541 -187.86235356 512.78399461 C-190.55186149 512.79707382 -193.24018476 512.78566258 -195.92964077 512.76799679 C-196.7049961 512.7776473 -197.48035143 512.78729781 -198.27920237 512.79724076 C-203.45364471 512.72714404 -206.37300197 511.51741223 -210.36894226 508.26742554 C-214.05840593 503.9180432 -213.80169256 499.59478184 -213.772995 494.15707397 C-213.78328987 492.79242508 -213.78328987 492.79242508 -213.79379272 491.40020752 C-213.81208898 488.39224611 -213.80821457 485.38480571 -213.80253601 482.37680054 C-213.80710083 480.27232698 -213.8124073 478.16785492 -213.81842041 476.06338501 C-213.82736037 471.645009 -213.82492339 467.22681357 -213.81498718 462.80844116 C-213.80357545 457.19043276 -213.8235841 451.57306023 -213.85290432 445.95513535 C-213.8714138 441.6017571 -213.87094341 437.24852651 -213.8652668 432.89511871 C-213.86511495 430.82700976 -213.8710442 428.75888989 -213.88355827 426.69081879 C-214.04183221 396.21017957 -204.75210905 370.30761701 -183.36894226 348.26742554 C-168.12450417 333.90929198 -149.91303354 326.71999743 -130.36894226 320.26742554 C-130.3601429 319.10350784 -130.3601429 319.10350784 -130.35116577 317.91607666 C-130.29316508 310.58909105 -130.22104664 303.26244263 -130.13322735 295.93575859 C-130.08857646 292.16938305 -130.04930906 288.40311436 -130.02250671 284.63656616 C-129.99642049 280.99887313 -129.95598145 277.36159243 -129.905756 273.72415543 C-129.88912303 272.33920562 -129.87758654 270.95418456 -129.87132835 269.56914902 C-129.86164924 267.6232438 -129.8318607 265.67747054 -129.80131531 263.73178101 C-129.79021225 262.62591644 -129.77910919 261.52005188 -129.76766968 260.38067627 C-129.14099809 255.48764483 -127.45455884 252.2471283 -123.80644226 248.95492554 C-120.31288894 246.5363117 -118.57769961 246.14373289 -114.36845398 246.15390015 C-112.80706192 246.15401344 -112.80706192 246.15401344 -111.21412659 246.15412903 C-110.08701263 246.15929031 -108.95989868 246.1644516 -107.79862976 246.16976929 C-106.0715831 246.17189171 -106.0715831 246.17189171 -104.30964661 246.17405701 C-100.6210524 246.17966838 -96.93251821 246.19222284 -93.24394226 246.20492554 C-90.74784939 246.20993907 -88.25175556 246.21450223 -85.75566101 246.21859741 C-79.62673418 246.22964151 -73.4978425 246.24639074 -67.36894226 246.26742554 C-67.6861322 245.3393811 -68.00332214 244.41133667 -68.3301239 243.45516968 C-70.91073474 235.53624235 -70.48768898 227.58088593 -70.43144226 219.32992554 C-70.42693054 218.07373413 -70.42241882 216.81754272 -70.41777039 215.52328491 C-70.40603907 212.43794891 -70.38962326 209.35271237 -70.36894226 206.26742554 C-71.00807556 206.27789917 -71.64720886 206.2883728 -72.30570984 206.29916382 C-75.26424561 206.34131048 -78.22271787 206.36693499 -81.18144226 206.39242554 C-82.18626648 206.40918335 -83.1910907 206.42594116 -84.22636414 206.44320679 C-97.4743939 206.52840312 -110.06268978 204.31452303 -120.24394226 195.14242554 C-129.39350912 185.14069314 -131.08560336 173.36816864 -130.55693054 160.43295288 C-130.16359251 155.90190313 -128.61181311 152.17110733 -126.36894226 148.26742554 C-125.77081726 147.21555054 -125.17269226 146.16367554 -124.55644226 145.07992554 C-117.40167713 135.8809418 -109.0798733 130.17371033 -97.36894226 128.26742554 C-92.69886053 128.03109303 -88.04343075 128.07825621 -83.36894226 128.14242554 C-82.11726257 128.15144897 -80.86558289 128.16047241 -79.57597351 128.16976929 C-76.50676216 128.19319838 -73.4379547 128.22600407 -70.36894226 128.26742554 C-70.37782471 127.47388168 -70.38670715 126.68033783 -70.39585876 125.86274719 C-70.47660923 118.31807185 -70.53720958 110.77361134 -70.57619095 103.22861385 C-70.59690663 99.35130546 -70.62492338 95.47435945 -70.67070007 91.59725952 C-70.71473982 87.8430033 -70.73819913 84.08909159 -70.74845123 80.33459663 C-70.75574005 78.91511181 -70.76996683 77.49564195 -70.79186249 76.0763073 C-71.08912599 55.97420942 -64.92292305 38.34554875 -51.36894226 23.26742554 C-50.85073914 22.65640991 -50.33253601 22.04539429 -49.79862976 21.41586304 C-37.51016262 7.89237408 -18.09248051 -0.07775829 0 0 Z " fill="#80BEFE" transform="translate(213.3689422607422,-0.267425537109375)"/>
<path d="M0 0 C0.79158203 -0.00453111 1.58316407 -0.00906223 2.39873344 -0.01373065 C5.02400614 -0.0262874 7.64906908 -0.02476002 10.27436829 -0.02310181 C12.16741703 -0.02909219 14.06046334 -0.03589891 15.95350647 -0.04345703 C21.07512704 -0.06106421 26.19668071 -0.06580995 31.31832862 -0.0670886 C34.51970914 -0.06851282 37.72107279 -0.07278737 40.92244911 -0.07808304 C52.09461671 -0.09656004 63.26673669 -0.10475585 74.43891907 -0.10317993 C84.84949215 -0.10197652 95.25985859 -0.12312395 105.67037934 -0.15466726 C114.61666262 -0.18080737 123.56287825 -0.1915483 132.50919944 -0.19026911 C137.84919091 -0.18975917 143.18899827 -0.19546155 148.52895164 -0.21662521 C153.54660825 -0.23597142 158.56390425 -0.23615686 163.58157349 -0.22159195 C165.42221922 -0.21949883 167.26288735 -0.22423461 169.10349464 -0.23631287 C171.61711018 -0.25173933 174.12947793 -0.24247544 176.64306641 -0.22705078 C177.3704033 -0.23733791 178.0977402 -0.24762503 178.8471176 -0.25822389 C183.89284213 -0.18984448 186.73459726 1.11664432 190.63105774 4.26742554 C193.6308566 8.07039595 194.01231855 10.96416181 194.03511047 15.74740601 C194.05413673 17.68630203 194.05413673 17.68630203 194.07354736 19.66436768 C194.07149376 21.07111776 194.06850394 22.47786673 194.06465149 23.88461304 C194.06921982 25.34369142 194.07452733 26.80276766 194.08053589 28.26184082 C194.08946596 31.32336138 194.08705144 34.3846212 194.07710266 37.44613647 C194.06570794 41.32689566 194.08567638 45.20673193 194.1150198 49.08736992 C194.13359006 52.10589122 194.13304699 55.1242008 194.12738228 58.14276505 C194.12723108 59.5705811 194.13310503 60.99841343 194.14567375 62.42617416 C194.30106733 83.0001155 187.91807163 101.14409864 173.63105774 116.26742554 C168.92139416 120.89286264 164.32615424 124.91987193 158.63105774 128.26742554 C159.41641907 128.27153442 160.2017804 128.27564331 161.01094055 128.27987671 C164.63503205 128.31315701 168.25751822 128.38384 171.88105774 128.45492554 C173.11597961 128.46072632 174.35090149 128.4665271 175.62324524 128.47250366 C187.41782765 128.75184903 197.03301099 131.74033074 205.65840149 140.02133179 C214.76729289 150.3928418 216.49249491 160.80859897 215.82637024 174.11166382 C215.00945046 183.12841587 210.38982872 190.93120928 203.78340149 196.95101929 C195.6811703 203.4102533 187.35002244 206.41226099 177.01777649 206.36508179 C175.77060852 206.36185913 174.52344055 206.35863647 173.23847961 206.35531616 C171.9449054 206.34693726 170.65133118 206.33855835 169.31855774 206.32992554 C167.3491925 206.32315796 167.3491925 206.32315796 165.34004211 206.31625366 C162.10366764 206.30448503 158.86738596 206.28804313 155.63105774 206.26742554 C155.64676819 207.01725708 155.66247864 207.76708862 155.67866516 208.53964233 C155.74189335 212.01132339 155.78032339 215.48288267 155.81855774 218.95492554 C155.85626282 220.72319702 155.85626282 220.72319702 155.89472961 222.52719116 C155.90439758 223.70346069 155.91406555 224.87973022 155.92402649 226.09164429 C155.93973694 227.15471802 155.95544739 228.21779175 155.97163391 229.31307983 C155.47736283 235.05193911 153.92627211 240.65482993 152.63105774 246.26742554 C80.03105774 246.26742554 7.43105774 246.26742554 -67.36894226 246.26742554 C-70.44713895 237.03283548 -70.49741252 229.00725578 -70.43144226 219.32992554 C-70.42693054 218.07373413 -70.42241882 216.81754272 -70.41777039 215.52328491 C-70.40603907 212.43794891 -70.38962326 209.35271237 -70.36894226 206.26742554 C-71.00807556 206.27789917 -71.64720886 206.2883728 -72.30570984 206.29916382 C-75.26424561 206.34131048 -78.22271787 206.36693499 -81.18144226 206.39242554 C-82.18626648 206.40918335 -83.1910907 206.42594116 -84.22636414 206.44320679 C-97.4743939 206.52840312 -110.06268978 204.31452303 -120.24394226 195.14242554 C-129.39350912 185.14069314 -131.08560336 173.36816864 -130.55693054 160.43295288 C-130.16359251 155.90190313 -128.61181311 152.17110733 -126.36894226 148.26742554 C-125.47175476 146.68961304 -125.47175476 146.68961304 -124.55644226 145.07992554 C-117.40167713 135.8809418 -109.0798733 130.17371033 -97.36894226 128.26742554 C-92.69886053 128.03109303 -88.04343075 128.07825621 -83.36894226 128.14242554 C-82.11726257 128.15144897 -80.86558289 128.16047241 -79.57597351 128.16976929 C-76.50676216 128.19319838 -73.4379547 128.22600407 -70.36894226 128.26742554 C-70.37782471 127.47388168 -70.38670715 126.68033783 -70.39585876 125.86274719 C-70.47660923 118.31807185 -70.53720958 110.77361134 -70.57619095 103.22861385 C-70.59690663 99.35130546 -70.62492338 95.47435945 -70.67070007 91.59725952 C-70.71473982 87.8430033 -70.73819913 84.08909159 -70.74845123 80.33459663 C-70.75574005 78.91511181 -70.76996683 77.49564195 -70.79186249 76.0763073 C-71.08912599 55.97420942 -64.92292305 38.34554875 -51.36894226 23.26742554 C-50.85073914 22.65640991 -50.33253601 22.04539429 -49.79862976 21.41586304 C-37.51016262 7.89237408 -18.09248051 -0.07775829 0 0 Z " fill="#E8998B" transform="translate(213.3689422607422,-0.267425537109375)"/>
<path d="M0 0 C40.38364029 -0.16121214 40.38364029 -0.16121214 57.29296875 -0.1953125 C68.9732159 -0.21905657 80.65334772 -0.24698532 92.33349609 -0.30175781 C100.83970837 -0.34162754 109.34582717 -0.36743329 117.85213029 -0.37635398 C122.35616462 -0.3815685 126.85993154 -0.39382313 131.36388016 -0.42292023 C135.6041263 -0.4500915 139.84399514 -0.45844157 144.08432007 -0.45243073 C145.63955105 -0.4535302 147.19479478 -0.4614741 148.74995041 -0.4768219 C150.87653678 -0.49677782 153.00170601 -0.49192037 155.12832642 -0.48101807 C156.31743937 -0.48470524 157.50655231 -0.48839241 158.73169899 -0.49219131 C163.51448199 0.22807412 166.65062997 2.46450997 169.8125 6.0625 C172.08996934 9.77837102 172.12202605 12.86494783 172.11352539 17.1237793 C172.11344986 18.38486008 172.11337433 19.64594086 172.11329651 20.94523621 C172.10818989 22.32156412 172.10297389 23.69789163 172.09765625 25.07421875 C172.09579086 26.48240611 172.09436753 27.89059411 172.09336853 29.29878235 C172.08955288 33.0026733 172.07973072 36.70652495 172.06866455 40.41040039 C172.05842997 44.19091256 172.05386652 47.97143109 172.04882812 51.75195312 C172.0381076 59.16798665 172.0210426 66.58398782 172 74 C172.66386719 74.19530807 173.32773437 74.39061615 174.01171875 74.59184265 C191.35048402 79.73464145 206.98279839 86.40980503 221 98 C222.09441406 98.87398437 222.09441406 98.87398437 223.2109375 99.765625 C241.15478629 114.75031276 252.97754276 137.93807013 256 161 C256.54987414 168.36903691 256.44763507 175.77151241 256.43359375 183.15625 C256.43816361 185.2742123 256.44347156 187.39217312 256.44947815 189.51013184 C256.45835784 193.9208789 256.45604064 198.33144434 256.44604492 202.7421875 C256.43449278 208.38904029 256.45488817 214.0352735 256.48396206 219.68204498 C256.50230397 224.04353796 256.50203676 228.40488134 256.49632454 232.7664032 C256.49617145 234.84918596 256.50220569 236.93197894 256.51461601 239.01472473 C256.52950625 241.9197207 256.51886753 244.82355585 256.50170898 247.72851562 C256.51137695 248.58262024 256.52104492 249.43672485 256.53100586 250.31671143 C256.46489912 255.66604336 255.65188971 258.82479254 252 263 C247.33004287 266.7945205 242.75755205 266.41372002 237.02165222 266.36076355 C236.00874266 266.36332682 234.99583311 266.3658901 233.95222932 266.36853105 C230.55417319 266.37347706 227.1565602 266.35696212 223.75854492 266.34057617 C221.32434093 266.33973008 218.89013617 266.34020469 216.45593262 266.34190369 C211.21323033 266.3425871 205.97062846 266.33407152 200.72795677 266.31719017 C193.14796518 266.29279858 185.56802773 266.28499474 177.98800115 266.2812262 C165.68964257 266.27466196 153.39134373 266.25470155 141.09301758 266.22631836 C129.14705707 266.19877707 117.2011128 266.17754384 105.25512695 266.16479492 C104.51865266 266.16400675 103.78217837 266.16321858 103.02338668 266.16240653 C99.32867435 266.15849139 95.63396191 266.15470027 91.9392494 266.15097082 C61.29279017 266.11987577 30.64640338 266.06681756 0 266 C-0.16976536 256.93039577 -0.29582194 247.86137264 -0.37239999 238.79050207 C-0.40923373 234.57422464 -0.45878868 230.35906584 -0.54222107 226.14343262 C-1.16374542 193.85182908 4.57852719 165.6782276 14.13146973 134.83859253 C17.74797016 123.01888811 20.87600568 111.03323158 23.85009766 99.03735352 C24.2044588 97.61974412 24.56529874 96.20374075 24.93212891 94.78930664 C28.34529125 81.96110079 28.34529125 81.96110079 25.8125 69.125 C22.43832787 65.16907406 19.15959862 64.12884429 14.0625 63.5625 C8.09139742 63.79127788 4.15548014 66.84451986 0 71 C0 47.57 0 24.14 0 0 Z " fill="#6698FE" transform="translate(256,246)"/>
<path d="M0 0 C0.79158203 -0.00453111 1.58316407 -0.00906223 2.39873344 -0.01373065 C5.02400614 -0.0262874 7.64906908 -0.02476002 10.27436829 -0.02310181 C12.16741703 -0.02909219 14.06046334 -0.03589891 15.95350647 -0.04345703 C21.07512704 -0.06106421 26.19668071 -0.06580995 31.31832862 -0.0670886 C34.51970914 -0.06851282 37.72107279 -0.07278737 40.92244911 -0.07808304 C52.09461671 -0.09656004 63.26673669 -0.10475585 74.43891907 -0.10317993 C84.84949215 -0.10197652 95.25985859 -0.12312395 105.67037934 -0.15466726 C114.61666262 -0.18080737 123.56287825 -0.1915483 132.50919944 -0.19026911 C137.84919091 -0.18975917 143.18899827 -0.19546155 148.52895164 -0.21662521 C153.54660825 -0.23597142 158.56390425 -0.23615686 163.58157349 -0.22159195 C165.42221922 -0.21949883 167.26288735 -0.22423461 169.10349464 -0.23631287 C171.61711018 -0.25173933 174.12947793 -0.24247544 176.64306641 -0.22705078 C177.3704033 -0.23733791 178.0977402 -0.24762503 178.8471176 -0.25822389 C183.89284213 -0.18984448 186.73459726 1.11664432 190.63105774 4.26742554 C193.6308566 8.07039595 194.01231855 10.96416181 194.03511047 15.74740601 C194.05413673 17.68630203 194.05413673 17.68630203 194.07354736 19.66436768 C194.07149376 21.07111776 194.06850394 22.47786673 194.06465149 23.88461304 C194.06921982 25.34369142 194.07452733 26.80276766 194.08053589 28.26184082 C194.08946596 31.32336138 194.08705144 34.3846212 194.07710266 37.44613647 C194.06570794 41.32689566 194.08567638 45.20673193 194.1150198 49.08736992 C194.13359006 52.10589122 194.13304699 55.1242008 194.12738228 58.14276505 C194.12723108 59.5705811 194.13310503 60.99841343 194.14567375 62.42617416 C194.30115911 83.01226803 187.90979142 101.12684333 173.63105774 116.26742554 C160.15545279 129.68112113 160.15545279 129.68112113 149.78619152 129.78375077 C148.92333615 129.77209941 148.06048078 129.76044804 147.17147827 129.7484436 C146.23853091 129.7518613 145.30558355 129.755279 144.34436506 129.75880027 C141.22875724 129.76537119 138.11401738 129.74341572 134.99848938 129.7215271 C132.76103231 129.72039845 130.52357376 129.72103282 128.28611755 129.72329712 C122.21841378 129.72444451 116.15102645 129.70093062 110.0833962 129.67300129 C103.73996031 129.64799217 97.39651713 129.64564601 91.05303955 129.64089966 C80.40800357 129.62988076 69.76309252 129.60489787 59.11811829 129.56918335 C48.15588458 129.53244275 37.19368241 129.50414105 26.23139954 129.4871521 C25.5551906 129.48610121 24.87898167 129.48505031 24.18228156 129.48396757 C20.78979203 129.47874726 17.39730227 129.47369246 14.00481236 129.46871996 C-14.11985318 129.42728254 -42.2443905 129.35655746 -70.36894226 129.26742554 C-70.46234947 120.7908275 -70.53306058 112.31445079 -70.57619095 103.83746243 C-70.59690983 99.89962291 -70.6249328 95.96213999 -70.67070007 92.02450562 C-70.71472791 88.21189524 -70.73819676 84.39962396 -70.74845123 80.58677864 C-70.75574211 79.14496599 -70.76997319 77.70316814 -70.79186249 76.26150322 C-71.0856912 56.07392638 -64.99082573 38.42108706 -51.36894226 23.26742554 C-50.85073914 22.65640991 -50.33253601 22.04539429 -49.79862976 21.41586304 C-37.51016262 7.89237408 -18.09248051 -0.07775829 0 0 Z " fill="#624D8B" transform="translate(213.3689422607422,-0.267425537109375)"/>
<path d="M0 0 C35.62788225 -0.20151517 35.62788225 -0.20151517 50.6015625 -0.24414062 C60.92493158 -0.27376475 71.24809604 -0.30851792 81.57128906 -0.37719727 C89.0909252 -0.42720072 96.61039473 -0.45933076 104.13019252 -0.47044247 C108.10801379 -0.47693276 112.08535861 -0.49207059 116.06302643 -0.52865028 C119.81582633 -0.56287867 123.56795877 -0.57299977 127.32089996 -0.56553841 C129.3368639 -0.56754524 131.35275705 -0.59429867 133.36853027 -0.62210083 C145.03870276 -0.55678806 154.51523003 2.58165914 163.02734375 10.75390625 C172.13623515 21.12541626 173.86143717 31.54117343 173.1953125 44.84423828 C172.37839272 53.86099033 167.75877098 61.66378374 161.15234375 67.68359375 C153.05011256 74.14282776 144.7189647 77.14483546 134.38671875 77.09765625 C132.5159668 77.09282227 132.5159668 77.09282227 130.60742188 77.08789062 C129.31384766 77.07951172 128.02027344 77.07113281 126.6875 77.0625 C124.71813477 77.05573242 124.71813477 77.05573242 122.70898438 77.04882812 C119.4726099 77.03705949 116.23632822 77.0206176 113 77 C113.01571045 77.74983154 113.0314209 78.49966309 113.04760742 79.2722168 C113.11083561 82.74389786 113.14926565 86.21545713 113.1875 89.6875 C113.21263672 90.86634766 113.23777344 92.04519531 113.26367188 93.25976562 C113.27333984 94.43603516 113.28300781 95.61230469 113.29296875 96.82421875 C113.3086792 97.88729248 113.32438965 98.95036621 113.34057617 100.0456543 C112.84630509 105.78451357 111.29521437 111.38740439 110 117 C73.7 117 37.4 117 0 117 C0 78.39 0 39.78 0 0 Z " fill="#D48577" transform="translate(256,129)"/>
<path d="M0 0 C18.1183563 5.43550689 34.32214267 11.86353847 49 24 C49.72960937 24.58265625 50.45921875 25.1653125 51.2109375 25.765625 C69.15478629 40.75031276 80.97754276 63.93807013 84 87 C84.54987414 94.36903691 84.44763507 101.77151241 84.43359375 109.15625 C84.43816361 111.2742123 84.44347156 113.39217312 84.44947815 115.51013184 C84.45835784 119.9208789 84.45604064 124.33144434 84.44604492 128.7421875 C84.43449278 134.38904029 84.45488817 140.0352735 84.48396206 145.68204498 C84.50230397 150.04353796 84.50203676 154.40488134 84.49632454 158.7664032 C84.49617145 160.84918596 84.50220569 162.93197894 84.51461601 165.01472473 C84.52950625 167.9197207 84.51886753 170.82355585 84.50170898 173.72851562 C84.51137695 174.58262024 84.52104492 175.43672485 84.53100586 176.31671143 C84.46489912 181.66604336 83.65188971 184.82479254 80 189 C57.11744964 202.72953022 26.68541008 192 0 192 C0 128.64 0 65.28 0 0 Z " fill="#FF4C88" transform="translate(428,320)"/>
<path d="M0 0 C0 63.36 0 126.72 0 192 C-75 192 -75 192 -81 188 C-84.68946367 183.65061766 -84.4327503 179.3273563 -84.40405273 173.88964844 C-84.41091599 172.97988251 -84.41777924 172.07011658 -84.42485046 171.13278198 C-84.44314672 168.12482058 -84.43927231 165.11738017 -84.43359375 162.109375 C-84.43815857 160.00490145 -84.44346504 157.90042939 -84.44947815 155.79595947 C-84.45841811 151.37758346 -84.45598113 146.95938803 -84.44604492 142.54101562 C-84.43463318 136.92300722 -84.45464184 131.30563469 -84.48396206 125.68770981 C-84.50247154 121.33433157 -84.50200115 116.98110097 -84.49632454 112.62769318 C-84.49617269 110.55958422 -84.50210194 108.49146435 -84.51461601 106.42339325 C-84.67288995 75.94275404 -75.38316679 50.04019147 -54 28 C-41.93203378 16.63365972 -17.68091791 0 0 0 Z " fill="#FF7FAA" transform="translate(84,320)"/>
<path d="M0 0 C3.63517598 2.02102444 5.59675355 3.78163049 7.87890625 7.30859375 C9.84215363 15.29246641 7.45100403 23.48288649 5.48828125 31.30859375 C5.25739807 32.25057617 5.02651489 33.19255859 4.78863525 34.16308594 C4.30094923 36.14711582 3.80999506 38.13034498 3.31591797 40.11279297 C2.5756836 43.08385744 1.8455243 46.05724917 1.1171875 49.03125 C-1.25884331 58.68457921 -3.74635071 68.2928151 -6.44891357 77.85984802 C-8.38765152 84.7563179 -10.05268756 91.70833344 -11.68359375 98.68359375 C-19.74007384 132.50851017 -19.74007384 132.50851017 -24.98046875 136.484375 C-29.54356778 138.70204113 -33.01238983 139.87326887 -38.18359375 139.12109375 C-42.41096478 137.40563884 -45.90933248 135.16422489 -48.18359375 131.12109375 C-50.65180127 124.8383837 -49.11755895 117.86987993 -47.18359375 111.68359375 C-44.53982988 102.73546987 -42.34780808 93.69371803 -40.18359375 84.62109375 C-37.93842341 75.23455368 -35.65252147 65.87869642 -32.9765625 56.60375977 C-31.17967238 50.30183095 -29.68462439 43.93655252 -28.18359375 37.55859375 C-26.42726821 30.14965542 -24.64352067 22.75788301 -22.55859375 15.43359375 C-22.37683594 14.769646 -22.19507813 14.10569824 -22.0078125 13.42163086 C-20.40171817 7.9547876 -18.20288284 3.49788177 -13.43359375 0.24609375 C-8.61481458 -1.42194519 -4.72840619 -1.90320464 0 0 Z " fill="#E4EFF2" transform="translate(276.18359375,309.87890625)"/>
<path d="M0 0 C0 25.74 0 51.48 0 78 C-37.525978 78 -37.525978 78 -49.875 66.875 C-59.02456686 56.8732676 -60.7166611 45.1007431 -60.18798828 32.16552734 C-59.79465025 27.63447759 -58.24287085 23.90368179 -56 20 C-55.401875 18.948125 -54.80375 17.89625 -54.1875 16.8125 C-39.77839092 -1.71349739 -23.84045428 0 0 0 Z " fill="#D48678" transform="translate(143,128)"/>
<path d="M0 0 C38.8262051 0 38.8262051 0 50.02734375 10.75390625 C59.13623515 21.12541626 60.86143717 31.54117343 60.1953125 44.84423828 C59.37839272 53.86099033 54.75877098 61.66378374 48.15234375 67.68359375 C33.24495091 79.56801628 19.93864894 77 0 77 C0 51.59 0 26.18 0 0 Z " fill="#C76D58" transform="translate(369,129)"/>
<path d="M0 0 C5.33061695 3.0966781 9.41652362 7.14073452 13.734375 11.50390625 C14.81322968 12.58344826 14.81322968 12.58344826 15.91387939 13.68479919 C17.42559587 15.19952448 18.93489359 16.71666714 20.44189453 18.23608398 C22.75108146 20.56359003 25.06823333 22.8829318 27.38671875 25.20117188 C28.85724464 26.67661126 30.32731281 28.15250701 31.796875 29.62890625 C32.48956482 30.32270889 33.18225464 31.01651154 33.89593506 31.7313385 C34.53710266 32.37888596 35.17827026 33.02643341 35.83886719 33.69360352 C36.40257019 34.26111832 36.96627319 34.82863312 37.54705811 35.41334534 C40.59517833 38.74198097 41.31398515 40.90112627 41.375 45.3125 C41.40335937 46.23675781 41.43171875 47.16101563 41.4609375 48.11328125 C40.35146971 55.06155832 34.31048754 59.98323418 29.53125 64.734375 C28.4552655 65.81322968 28.4552655 65.81322968 27.35754395 66.91387939 C25.84710227 68.42567665 24.33415362 69.93497289 22.81884766 71.44189453 C20.50058618 73.74941654 18.19322357 76.06745183 15.88671875 78.38671875 C14.41470361 79.8574128 12.94206846 81.3274866 11.46875 82.796875 C10.78010864 83.48956482 10.09146729 84.18225464 9.38195801 84.89593506 C8.73448608 85.53710266 8.08701416 86.17827026 7.41992188 86.83886719 C6.85462769 87.40257019 6.2893335 87.96627319 5.70690918 88.54705811 C1.37290686 92.2362137 -2.69346908 92.54551792 -8.234375 92.44921875 C-12.71901011 91.72078226 -15.22337384 89.48325257 -18 86 C-20.35876903 82.10290335 -20.95148587 77.45908208 -20 73 C-17.46087265 68.85610119 -14.6871807 65.44760146 -11.234375 62.0390625 C-10.34492188 61.15605469 -9.45546875 60.27304687 -8.5390625 59.36328125 C-7.61867188 58.45964844 -6.69828125 57.55601562 -5.75 56.625 C-4.81414062 55.69816406 -3.87828125 54.77132812 -2.9140625 53.81640625 C-0.61384861 51.53966393 1.69091445 49.26773829 4 47 C2.47615568 43.36792949 0.32124015 41.12900369 -2.5 38.41015625 C-3.386875 37.54326172 -4.27375 36.67636719 -5.1875 35.78320312 C-7.06054904 33.97128833 -8.93554715 32.16138618 -10.8125 30.35351562 C-12.1428125 29.05124023 -12.1428125 29.05124023 -13.5 27.72265625 C-14.72203125 26.54328491 -14.72203125 26.54328491 -15.96875 25.34008789 C-19.5151337 21.25450042 -20.46933383 17.40191755 -20.31640625 11.98828125 C-19.61997609 7.6119485 -16.73911336 4.85110023 -13.9375 1.625 C-9.48918601 -0.83576944 -4.96466428 -0.93646927 0 0 Z " fill="#CEDEE6" transform="translate(326,333)"/>
<path d="M0 0 C4.85978996 2.29735525 7.59883576 5.19767151 10 10 C10.98817082 15.55152143 9.73495043 19.09255874 7 24 C4.73168945 26.60888672 4.73168945 26.60888672 2.11328125 29.1796875 C1.17548828 30.1078125 0.23769531 31.0359375 -0.72851562 31.9921875 C-1.71468033 32.95329271 -2.70101052 33.91422815 -3.6875 34.875 C-4.68623895 35.85867282 -5.68429284 36.8430417 -6.68164062 37.828125 C-9.11444964 40.22567591 -11.55399215 42.61592846 -14 45 C-12.47371085 48.63323178 -10.31196093 50.89312656 -7.5 53.625 C-6.613125 54.49640625 -5.72625 55.3678125 -4.8125 56.265625 C-3.884375 57.16796875 -2.95625 58.0703125 -2 59 C-0.16203271 60.78691264 1.67150423 62.5783966 3.5 64.375 C4.3146875 65.16648437 5.129375 65.95796875 5.96875 66.7734375 C9.54754827 70.69635099 10.40994471 73.59842158 10.25 78.9765625 C9.68828345 83.5229558 7.77421842 86.30131509 4.4375 89.3125 C-0.56409608 92.77514344 -5.03827705 93.06184993 -11 92 C-13.26367187 90.47338867 -13.26367187 90.47338867 -15.46875 88.35546875 C-16.32855469 87.53820312 -17.18835938 86.7209375 -18.07421875 85.87890625 C-19.05051009 84.92031967 -20.02570232 83.96061284 -21 83 C-22.13134557 81.89957008 -23.26286438 80.79931824 -24.39453125 79.69921875 C-27.48631171 76.67939382 -30.55162372 73.63407732 -33.60742188 70.57788086 C-35.51935235 68.66817012 -37.43919757 66.76664865 -39.359375 64.86523438 C-40.58382076 63.64371757 -41.80779678 62.42172967 -43.03125 61.19921875 C-43.60202271 60.63563156 -44.17279541 60.07204437 -44.76086426 59.49137878 C-49.09122309 55.13579448 -51.28426282 52.02212685 -51.6875 45.875 C-51.51097901 41.12289064 -50.6324534 38.96402048 -47.35546875 35.5390625 C-46.53892822 34.67812988 -45.7223877 33.81719727 -44.88110352 32.93017578 C-43.92225864 31.9519554 -42.96178565 30.97532916 -42 30 C-41.46720428 29.45438416 -40.93440857 28.90876831 -40.38546753 28.34661865 C-36.79096212 24.66865498 -33.16554783 21.02287385 -29.52294922 17.39257812 C-27.60395465 15.47901421 -25.69045479 13.56006923 -23.77734375 11.640625 C-22.55240441 10.41634533 -21.32715551 9.1923753 -20.1015625 7.96875 C-19.53281403 7.39797729 -18.96406555 6.82720459 -18.37808228 6.23913574 C-12.28451034 0.18171613 -8.45399932 -0.96893975 0 0 Z " fill="#E5EFF2" transform="translate(196,333)"/>
<path d="M0 0 C3.63517598 2.02102444 5.59675355 3.78163049 7.87890625 7.30859375 C9.84215363 15.29246641 7.45100403 23.48288649 5.48828125 31.30859375 C5.25739807 32.25057617 5.02651489 33.19255859 4.78863525 34.16308594 C4.30094923 36.14711582 3.80999506 38.13034498 3.31591797 40.11279297 C2.5756836 43.08385744 1.8455243 46.05724917 1.1171875 49.03125 C-1.25800287 58.68126839 -3.74383623 68.2867238 -6.44438171 77.8507843 C-8.39631654 84.79350801 -10.09335719 91.78892698 -11.74609375 98.80859375 C-14.08362345 108.62138177 -16.48104467 118.40198868 -19.18359375 128.12109375 C-19.51359375 128.12109375 -19.84359375 128.12109375 -20.18359375 128.12109375 C-20.43135972 112.87434515 -20.64985057 97.62736976 -20.83380604 82.3797226 C-20.9199038 75.29942376 -21.01545985 68.219492 -21.13354492 61.13964844 C-21.24750019 54.3057975 -21.33474874 47.47201837 -21.40579796 40.6375885 C-21.43723839 38.03161961 -21.47759214 35.42574235 -21.52704811 32.8200531 C-21.59485311 29.1669885 -21.63080834 25.51488107 -21.65942383 21.86132812 C-21.68675095 20.78670319 -21.71407806 19.71207825 -21.74223328 18.60488892 C-21.75253416 11.89376456 -20.69908409 7.24087471 -16.18359375 2.12109375 C-11.16850378 -1.44519245 -5.71532625 -2.30044438 0 0 Z " fill="#CDDEE6" transform="translate(276.18359375,309.87890625)"/>
<path d="M0 0 C4.85999117 1.715291 8.51822692 4.43195553 11 9 C12.29059089 13.41809642 12.36950588 16.86974673 10.9375 21.25 C8.26429878 25.04422108 5.20256941 27.89871529 1 30 C-3.70697417 30.57425085 -7.12144792 30.45554552 -11.375 28.25 C-15.24056339 24.93665995 -17.63355536 22.15382684 -18.23828125 16.94921875 C-18.41951525 11.42635099 -17.79936836 8.29928525 -14 4 C-9.4419324 0.06348707 -5.82193413 -0.94504342 0 0 Z " fill="#4B3473" transform="translate(307,168)"/>
<path d="M0 0 C4.07592745 2.23022446 6.24910972 4.68571945 8.3125 8.8125 C8.90356487 14.49581608 8.58493416 18.96027003 5.3125 23.8125 C1.16131557 27.75080318 -1.51583816 28.6114202 -7.0625 29.125 C-12.54676861 28.65221822 -15.3828888 26.25815025 -19 22.25 C-21.85933193 18.11985388 -22.1060961 14.75193398 -21.6875 9.8125 C-16.81355684 0.60616291 -10.10409738 -3.25386187 0 0 Z " fill="#644E8B" transform="translate(214.6875,169.1875)"/>
</svg>
